<svg viewBox="0 0 60 50" xmlns="http://www.w3.org/2000/svg"><path d="M55.999,20.4859191 L13.657,20.4859191 L24.978,7.70754557 C26.54,5.94446639 26.54,3.08538857 24.978,1.32230939 C23.416,-0.440769795 20.883,-0.440769795 19.321,1.32230939 L1.172,21.8076641 L1.172,21.8076641 C0.986,22.0176082 0.82,22.250127 0.673,22.4973193 C0.613,22.5977764 0.573,22.7083921 0.521,22.8122355 C0.446,22.9646143 0.365,23.1124781 0.305,23.2750155 C0.257,23.4070771 0.231,23.5436537 0.194,23.6791015 C0.154,23.8247079 0.105,23.9669282 0.078,24.119307 C0.038,24.3495683 0.024,24.5832158 0.016,24.8168633 C0.014,24.8789435 3.55271368e-15,24.9365088 3.55271368e-15,24.9997178 C3.55271368e-15,25.0696992 0.016,25.1351656 0.018,25.2040183 C0.027,25.4297647 0.039,25.655511 0.079,25.8789999 C0.107,26.0404086 0.158,26.1894012 0.201,26.3440375 C0.236,26.4704554 0.26,26.5991309 0.305,26.7221627 C0.369,26.8971161 0.455,27.0596535 0.538,27.2221909 C0.584,27.3136182 0.619,27.4106891 0.671,27.4998589 C0.819,27.7515661 0.988,27.9852136 1.177,28.1974152 L19.321,48.6771262 C20.102,49.5586658 21.126,50 22.15,50 C23.174,50 24.197,49.5586658 24.979,48.6771262 C26.541,46.9140471 26.541,44.0549692 24.979,42.2930188 L13.658,29.515774 L55.999,29.515774 C58.208,29.515774 59.999,27.4942152 59.999,25.0008465 C59.999,22.5074778 58.208,20.4859191 55.999,20.4859191 L55.999,20.4859191 Z" fill="#FFF" /></svg>
